<svg width="252" height="91" viewBox="0 0 252 91" fill="none" xmlns="http://www.w3.org/2000/svg">
<path d="M24.6603 73.0528V69.9017H24.5233C22.5368 72.6418 18.9747 74.1488 15.4812 74.1488C5.61707 74.1488 0 65.1752 0 56.0646C0 47.1595 5.68557 38.3229 15.3442 38.3229C18.8377 38.3229 22.3998 39.8299 24.5233 42.5014H24.6603V14.9641H34.2504V73.0528H24.6603ZM17.6732 65.6547C22.6053 65.6547 25.6193 60.7226 25.6193 56.2016C25.6193 51.6805 22.6053 46.817 17.6732 46.817C12.7411 46.817 9.72711 51.6805 9.72711 56.2016C9.72711 60.7226 12.7411 65.6547 17.6732 65.6547Z" fill="#17A5F0"/>
<path d="M72.9143 35.5914V73.0528H63.4612V69.9702H63.3242C61.2691 72.6418 57.7071 74.1488 54.2136 74.1488C44.3495 74.1488 38.7324 65.1752 38.7324 56.0646C38.7324 47.1595 44.4179 38.3229 54.0766 38.3229C57.5701 38.3229 61.1321 39.8299 63.4612 42.5699V39.4189L72.9143 35.5914ZM56.4056 65.6547C61.3377 65.6547 64.4202 60.7226 64.4202 56.2016C64.4202 51.6805 61.3377 46.817 56.4056 46.817C51.4735 46.817 48.4595 51.6805 48.4595 56.2016C48.4595 60.7226 51.4735 65.6547 56.4056 65.6547Z" fill="#17A5F0"/>
<path d="M101.235 41.8164L97.1245 47.365C95.7545 46.0635 93.9735 45.036 92.0555 45.036C90.4799 45.036 88.9044 46.269 88.9044 47.913C88.9044 50.379 92.3979 51.064 95.823 52.571C99.3165 54.0781 102.742 56.4071 102.742 62.2297C102.742 69.6962 96.7135 74.1488 89.6579 74.1488C85.1369 74.1488 80.7528 72.0938 77.8073 68.5317L82.1913 62.8462C84.0408 64.9012 86.5069 66.7507 89.3154 66.7507C91.4389 66.7507 93.1515 65.3122 93.1515 63.1202C93.1515 60.1746 89.7949 59.4896 86.4384 58.0511C83.0818 56.6126 79.7253 54.6261 79.7253 49.2145C79.7253 42.9124 84.1094 38.3229 90.4114 38.3229C93.9735 38.3229 98.4945 39.4189 101.235 41.8164Z" fill="#17A5F0"/>
<path d="M107.958 14.9641H117.548V42.2274H117.685C119.672 39.4874 123.029 38.3229 126.454 38.3229C135.496 38.3229 138.099 44.6935 138.099 52.5025V73.0528H128.509V55.2426C128.509 51.201 128.714 45.995 123.303 45.995C117.617 45.995 117.548 52.3655 117.548 56.4071V73.0528H107.958V14.9641Z" fill="#17A5F0"/>
<path d="M155.706 47.502V73.0528H146.116V47.502H142.828V39.4189H146.116V28.0478H155.706V39.4189H161.597V47.502H155.706Z" fill="#FE802C"/>
<path d="M173.819 39.4189V73.0528H164.229V39.4189H173.819Z" fill="#FE802C"/>
<path d="M190.665 39.4189V42.5014H190.802C192.789 39.4874 196.145 38.3229 199.57 38.3229C208.612 38.3229 211.215 44.6935 211.215 52.5025V73.0528H201.625V55.2426C201.625 51.201 201.831 45.995 196.419 45.995C190.734 45.995 190.665 52.3655 190.665 56.4071V73.0528H181.075V39.4189H190.665Z" fill="#FE802C"/>
<path d="M227.727 67.9152L213.41 39.4189H224.302L232.316 58.5306L240.947 39.4189H251.633L227.179 91H216.63L227.727 67.9152Z" fill="#FE802C"/>
<path fill-rule="evenodd" clip-rule="evenodd" d="M173.325 29.8334C176.703 24.2437 181.539 15.5244 181.539 11.42C181.539 5.1129 176.426 0 170.119 0C163.812 0 158.699 5.1129 158.699 11.42C158.699 15.5244 163.535 24.2437 166.913 29.8334C168.393 32.2822 171.845 32.2822 173.325 29.8334ZM170.122 16.7942C173.09 16.7942 175.496 14.3881 175.496 11.42C175.496 8.45201 173.09 6.04594 170.122 6.04594C167.154 6.04594 164.748 8.45201 164.748 11.42C164.748 14.3881 167.154 16.7942 170.122 16.7942Z" fill="#FE802C"/>
</svg>
